<svg xmlns="http://www.w3.org/2000/svg" width="900" height="560" viewBox="0 0 900 560" font-family="-apple-system, 'Hiragino Sans', 'Helvetica Neue', sans-serif">
  <defs>
    <filter id="blurIcon"><feGaussianBlur stdDeviation="1.6"/></filter>
    <filter id="imgShadow" x="-10%" y="-10%" width="120%" height="130%"><feDropShadow dx="0" dy="3" stdDeviation="6" flood-opacity="0.35"/></filter>
    <filter id="annShadow" x="-20%" y="-20%" width="140%" height="160%"><feDropShadow dx="1.5" dy="2.5" stdDeviation="2" flood-opacity="0.45"/></filter>
    <filter id="popShadow" x="-10%" y="-10%" width="120%" height="140%"><feDropShadow dx="0" dy="4" stdDeviation="8" flood-opacity="0.25"/></filter>
  </defs>

  <rect x="1.5" y="1.5" width="897" height="557" rx="14" fill="#ececec" stroke="#22AEDB" stroke-width="3"/>
  <circle cx="22" cy="20" r="6" fill="#ff5f57"/><circle cx="42" cy="20" r="6" fill="#febc2e"/><circle cx="62" cy="20" r="6" fill="#28c840"/>
  <text x="450" y="25" text-anchor="middle" font-size="13" font-weight="600" fill="#333">JPScreenShot</text>
  <line x1="3" y1="38" x2="897" y2="38" stroke="#d0d0d0"/>

  <!-- ① 縦のツールレール -->
  <rect x="3" y="39" width="57" height="431" fill="#f6f6f6"/>
  <line x1="60" y1="39" x2="60" y2="470" stroke="#d0d0d0"/>
  <rect x="12" y="48" width="40" height="36" rx="7" fill="#fff" stroke="#e0e0e0"/>
  <polygon points="27,56 27,74 31,70 34,77 36,76 33,69 39,69" fill="#333"/>
  <rect x="12" y="90" width="40" height="36" rx="7" fill="#fff" stroke="#e0e0e0"/>
  <line x1="24" y1="116" x2="37" y2="102" stroke="#333" stroke-width="2"/><polygon points="41,98 32,100 39,107" fill="#333"/>
  <rect x="12" y="132" width="40" height="36" rx="7" fill="#fff" stroke="#e0e0e0"/>
  <line x1="24" y1="158" x2="40" y2="142" stroke="#333" stroke-width="2"/>
  <rect x="12" y="174" width="40" height="36" rx="7" fill="#fff" stroke="#e0e0e0"/>
  <rect x="24" y="186" width="16" height="12" fill="none" stroke="#333" stroke-width="2"/>
  <rect x="12" y="216" width="40" height="36" rx="7" fill="#fff" stroke="#e0e0e0"/>
  <ellipse cx="32" cy="234" rx="8" ry="7" fill="none" stroke="#333" stroke-width="2"/>
  <rect x="12" y="258" width="40" height="36" rx="7" fill="#d5eefa" stroke="#9fd2ec"/>
  <text x="32" y="283" text-anchor="middle" font-size="18" font-weight="800" fill="#fff" stroke="#1683b8" stroke-width="2" paint-order="stroke">A</text>
  <rect x="12" y="300" width="40" height="36" rx="7" fill="#fff" stroke="#e0e0e0"/>
  <circle cx="32" cy="318" r="7" fill="#777" filter="url(#blurIcon)"/>
  <rect x="12" y="342" width="40" height="36" rx="7" fill="#fff" stroke="#e0e0e0"/>
  <g>
    <rect x="25" y="353" width="5" height="5" fill="#555"/><rect x="30" y="353" width="5" height="5" fill="#aaa"/><rect x="35" y="353" width="5" height="5" fill="#777"/>
    <rect x="25" y="358" width="5" height="5" fill="#999"/><rect x="30" y="358" width="5" height="5" fill="#444"/><rect x="35" y="358" width="5" height="5" fill="#bbb"/>
    <rect x="25" y="363" width="5" height="5" fill="#666"/><rect x="30" y="363" width="5" height="5" fill="#ccc"/><rect x="35" y="363" width="5" height="5" fill="#888"/>
  </g>
  <line x1="14" y1="390" x2="50" y2="390" stroke="#d6d6d6"/>
  <!-- 色と太さ（Skitch と同じくレールの下に常設） -->
  <circle cx="32" cy="414" r="13" fill="#FF3B30" stroke="#fff" stroke-width="3"/>
  <circle cx="32" cy="414" r="15" fill="none" stroke="#ccc"/>
  <circle cx="20" cy="450" r="2" fill="#333"/><circle cx="31" cy="450" r="3.5" fill="#333"/><circle cx="45" cy="450" r="5.5" fill="#1683b8"/>

  <!-- キャンバス -->
  <rect x="61" y="39" width="836" height="431" fill="#e1e1e1"/>
  <g filter="url(#imgShadow)"><rect x="110" y="70" width="740" height="370" fill="#fff"/></g>
  <rect x="110" y="70" width="740" height="30" fill="#2b3440"/>
  <rect x="126" y="81" width="60" height="8" rx="4" fill="#fff" opacity="0.7"/>
  <text x="140" y="140" font-size="18" font-weight="700" fill="#222">設定 &gt; 通知</text>
  <rect x="140" y="156" width="320" height="8" rx="4" fill="#d3d8de"/>
  <rect x="140" y="172" width="270" height="8" rx="4" fill="#d3d8de"/>
  <rect x="140" y="214" width="660" height="44" rx="8" fill="#f3f4f6"/>
  <text x="158" y="241" font-size="13" fill="#222">メール通知</text>
  <rect x="740" y="227" width="40" height="20" rx="10" fill="#c8c8c8"/><circle cx="751" cy="237" r="8" fill="#fff"/>
  <rect x="140" y="268" width="660" height="44" rx="8" fill="#f3f4f6"/>
  <text x="158" y="295" font-size="13" fill="#222">プッシュ通知</text>
  <rect x="740" y="281" width="40" height="20" rx="10" fill="#34C759"/><circle cx="769" cy="291" r="8" fill="#fff"/>
  <rect x="140" y="340" width="420" height="8" rx="4" fill="#e3e6ea"/>
  <rect x="140" y="356" width="360" height="8" rx="4" fill="#e3e6ea"/>

  <!-- 注釈 -->
  <rect x="728" y="219" width="64" height="36" rx="6" fill="none" stroke="#FF3B30" stroke-width="4" filter="url(#annShadow)"/>
  <g filter="url(#annShadow)">
    <line x1="640" y1="400" x2="722" y2="262" stroke="#FF3B30" stroke-width="5" stroke-linecap="round"/>
    <polygon points="728,250 728,270 712,262" fill="#FF3B30" stroke="#FF3B30" stroke-width="3" stroke-linejoin="round"/>
  </g>
  <!-- 選択中の袋文字テキスト -->
  <text x="470" y="420" font-size="30" font-weight="800" fill="#fff" stroke="#111" stroke-width="7" stroke-linejoin="round" paint-order="stroke" filter="url(#annShadow)">ここをオン</text>
  <rect x="462" y="388" width="170" height="44" fill="none" stroke="#1683b8" stroke-width="1" stroke-dasharray="4 3"/>
  <g fill="#fff" stroke="#1683b8" stroke-width="1.5">
    <rect x="458" y="384" width="8" height="8"/><rect x="628" y="384" width="8" height="8"/>
    <rect x="458" y="428" width="8" height="8"/><rect x="628" y="428" width="8" height="8"/>
  </g>

  <!-- ② 選択オブジェクトの上に出るポップオーバー -->
  <g filter="url(#popShadow)">
    <path d="M300 236 H700 a10 10 0 0 1 10 10 V362 a10 10 0 0 1 -10 10 H560 L547 382 L534 372 H300 a10 10 0 0 1 -10 -10 V246 a10 10 0 0 1 10 -10 Z" fill="#fbfbfb" stroke="#d0d0d0"/>
  </g>
  <text x="306" y="258" font-size="11" fill="#666">フォント</text>
  <rect x="360" y="246" width="170" height="20" rx="5" fill="#fff" stroke="#cfcfcf"/>
  <text x="368" y="260" font-size="11" fill="#333">ヒラギノ角ゴシック W8</text><text x="520" y="260" font-size="9" fill="#666">▾</text>
  <rect x="538" y="246" width="58" height="20" rx="5" fill="#fff" stroke="#cfcfcf"/>
  <text x="560" y="260" text-anchor="middle" font-size="11" fill="#333">30 pt</text><text x="588" y="260" font-size="9" fill="#666">⇕</text>
  <text x="606" y="260" font-size="11" fill="#666">影</text>
  <rect x="624" y="248" width="30" height="16" rx="8" fill="#34C759"/><circle cx="646" cy="256" r="6" fill="#fff"/>
  <text x="306" y="292" font-size="11" fill="#666">文字色</text>
  <circle cx="374" cy="288" r="11" fill="none" stroke="#1683b8" stroke-width="2"/>
  <circle cx="374" cy="288" r="8" fill="#fff" stroke="#bbb"/><circle cx="398" cy="288" r="8" fill="#111"/><circle cx="422" cy="288" r="8" fill="#FF3B30"/><circle cx="446" cy="288" r="8" fill="#FFCC00"/><circle cx="470" cy="288" r="8" fill="#007AFF"/><circle cx="494" cy="288" r="8" fill="#34C759"/>
  <text x="306" y="322" font-size="11" fill="#666">縁の色</text>
  <circle cx="398" cy="318" r="11" fill="none" stroke="#1683b8" stroke-width="2"/>
  <circle cx="374" cy="318" r="8" fill="#fff" stroke="#bbb"/><circle cx="398" cy="318" r="8" fill="#111"/><circle cx="422" cy="318" r="8" fill="#FF3B30"/><circle cx="446" cy="318" r="8" fill="#FFCC00"/><circle cx="470" cy="318" r="8" fill="#007AFF"/><circle cx="494" cy="318" r="8" fill="#34C759"/>
  <text x="306" y="352" font-size="11" fill="#666">縁の太さ</text>
  <line x1="374" y1="348" x2="620" y2="348" stroke="#c8c8c8" stroke-width="4" stroke-linecap="round"/>
  <line x1="374" y1="348" x2="450" y2="348" stroke="#1683b8" stroke-width="4" stroke-linecap="round"/>
  <circle cx="450" cy="348" r="7" fill="#fff" stroke="#bbb"/>
  <text x="680" y="352" text-anchor="end" font-size="11" fill="#333">7 pt</text>

  <!-- OCR バー・ボタンバー（現状どおり） -->
  <rect x="3" y="470" width="894" height="40" fill="#fff"/>
  <line x1="3" y1="470" x2="897" y2="470" stroke="#d0d0d0"/>
  <rect x="14" y="479" width="130" height="22" rx="6" fill="#fff" stroke="#cfcfcf"/>
  <text x="79" y="494" text-anchor="middle" font-size="12" fill="#333">テキストを認識</text>
  <rect x="152" y="479" width="120" height="22" rx="6" fill="#fff" stroke="#cfcfcf"/>
  <text x="182" y="494" text-anchor="middle" font-size="11" fill="#1683b8">日本語</text>
  <text x="242" y="494" text-anchor="middle" font-size="11" fill="#333">コード</text>
  <path d="M3 510 H897 V544 a13 13 0 0 1 -13 13 H16 a13 13 0 0 1 -13 -13 Z" fill="#f2f2f2"/>
  <line x1="3" y1="510" x2="897" y2="510" stroke="#d0d0d0"/>
  <g font-size="12" fill="#333" text-anchor="middle">
    <rect x="14" y="521" width="118" height="24" rx="6" fill="#fff" stroke="#cfcfcf"/><text x="73" y="537">＋ 新規キャプチャ</text>
    <rect x="152" y="521" width="96" height="24" rx="6" fill="#fff" stroke="#cfcfcf"/><text x="200" y="537">画像をコピー</text>
    <rect x="256" y="521" width="56" height="24" rx="6" fill="#fff" stroke="#cfcfcf"/><text x="284" y="537">保存</text>
    <rect x="322" y="521" width="56" height="24" rx="6" fill="#fff" stroke="#cfcfcf"/><text x="350" y="537">↶ ↷</text>
    <text x="682" y="537">☑ 等倍</text>
    <text x="770" y="537" font-size="11" fill="#888">1480 × 740</text>
    <rect x="824" y="521" width="62" height="24" rx="6" fill="#fff" stroke="#cfcfcf"/><text x="855" y="537">閉じる</text>
  </g>

  <g font-size="12" font-weight="700" fill="#fff" text-anchor="middle">
    <circle cx="66" cy="52" r="11" fill="#7B61FF"/><text x="66" y="56">1</text>
    <circle cx="66" cy="410" r="11" fill="#7B61FF"/><text x="66" y="414">2</text>
    <circle cx="296" cy="236" r="11" fill="#7B61FF"/><text x="296" y="240">3</text>
  </g>
</svg>
